<svg version="1.0" xmlns="http://www.w3.org/2000/svg"  width="300.000000pt" height="282.000000pt" viewBox="0 0 300.000000 282.000000"  preserveAspectRatio="xMidYMid meet">  <g transform="translate(0.000000,282.000000) scale(0.100000,-0.100000)" fill="#000000" stroke="none"> <path d="M1318 2679 c-183 -21 -382 -93 -530 -192 -84 -56 -210 -160 -217 -178 -3 -9 44 -125 55 -138 2 -3 20 14 39 37 114 132 341 262 552 314 107 26 337 31 448 9 226 -45 436 -160 593 -325 127 -134 217 -295 269 -482 25 -91 28 -114 28 -274 0 -160 -3 -183 -28 -274 -15 -55 -47 -142 -72 -193 -41 -88 -140 -243 -154 -243 -4 0 -33 64 -65 143 -33 78 -72 169 -87 202 -24 51 -26 61 -13 68 34 19 84 71 114 117 120 188 79 440 -94 570 -179 135 -418 114 -570 -51 -45 -48 -64 -82 -118 -211 -36 -84 -73 -174 -83 -200 -10 -27 -20 -48 -24 -48 -3 0 -15 26 -27 58 -40 109 -178 431 -183 427 -2 -3 -17 -35 -31 -73 -15 -37 -57 -138 -94 -224 -36 -87 -66 -165 -66 -173 0 -21 -19 -19 -27 3 -3 9 -66 161 -140 337 -74 176 -160 382 -191 457 -31 76 -59 138 -62 137 -3 0 -26 -28 -52 -62 -231 -308 -314 -660 -239 -1022 47 -229 155 -427 331 -606 221 -225 454 -337 770 -370 187 -19 411 15 593 91 78 32 204 104 252 143 l29 24 -17 39 c-9 22 -21 51 -27 66 l-9 28 -63 -48 c-190 -143 -452 -222 -697 -209 -476 26 -875 340 -1006 793 -56 193 -56 416 1 610 38 132 114 288 114 235 0 -10 90 -227 271 -651 62 -146 120 -287 130 -315 10 -27 20 -50 23 -50 6 0 155 356 201 480 7 20 7 20 15 0 5 -11 47 -112 94 -225 47 -113 90 -218 96 -235 11 -28 15 -19 104 195 177 428 197 469 243 516 106 106 276 111 388 12 119 -105 129 -292 21 -410 -14 -16 -29 -28 -33 -28 -4 0 -28 50 -53 112 l-46 111 -77 2 c-42 1 -77 1 -77 0 0 -1 27 -62 60 -136 33 -73 60 -138 60 -143 0 -14 -123 0 -160 19 -89 46 -160 137 -160 207 0 15 -4 28 -10 28 -5 0 -10 -6 -10 -12 0 -7 -16 -51 -35 -97 l-34 -84 19 -26 c84 -119 239 -190 383 -177 59 5 68 4 74 -11 3 -10 57 -138 120 -285 62 -147 113 -272 113 -278 0 -25 32 -4 103 70 278 290 400 666 341 1057 -72 485 -434 888 -907 1008 -163 41 -303 51 -459 34z m336 -48 c7 -6 15 -8 18 -5 8 7 151 -31 226 -60 223 -88 445 -267 567 -456 225 -350 257 -769 87 -1160 -51 -117 -175 -292 -255 -359 -27 -23 -29 -23 -42 -5 -8 11 -22 39 -31 64 -9 25 -30 73 -46 108 -15 34 -28 65 -28 67 0 2 -11 28 -23 57 -13 29 -35 80 -48 113 -12 33 -29 66 -36 73 -7 7 -13 19 -13 27 0 7 -11 20 -25 29 -15 10 -25 12 -25 6 0 -8 -29 -10 -89 -7 -110 6 -196 42 -266 111 -48 48 -54 70 -30 102 14 18 15 18 26 1 49 -82 151 -144 252 -154 57 -5 64 -3 85 20 25 26 26 22 -20 125 -48 110 -52 123 -37 133 8 5 17 9 21 9 17 0 46 -45 68 -106 12 -36 34 -79 47 -94 23 -28 24 -29 55 -12 107 57 157 225 108 356 -28 72 -89 141 -162 182 -47 26 -63 29 -135 28 -86 0 -139 -16 -201 -62 -53 -40 -88 -97 -153 -251 -34 -80 -84 -198 -111 -261 -28 -63 -54 -126 -59 -139 -8 -21 -12 -22 -23 -10 -8 8 -37 70 -66 139 -103 248 -120 272 -164 225 -13 -14 -43 -69 -66 -123 -23 -53 -56 -130 -73 -171 -18 -40 -36 -74 -42 -75 -5 0 -25 35 -43 79 -107 250 -152 361 -152 372 0 7 -5 13 -11 13 -5 0 -8 4 -5 9 3 5 -1 14 -9 21 -8 7 -15 18 -15 24 0 6 -9 28 -20 49 -11 20 -20 46 -20 57 0 12 -9 39 -21 62 -11 22 -36 77 -55 121 -36 87 -58 117 -84 117 -49 0 -113 -133 -162 -335 -26 -105 -30 -316 -9 -425 71 -372 306 -681 631 -833 119 -56 149 -67 175 -67 13 0 25 -5 27 -12 3 -7 22 -11 49 -10 24 1 55 -4 69 -11 17 -8 72 -12 175 -11 123 1 168 6 250 27 153 38 270 88 380 163 l50 34 18 -22 c18 -22 18 -23 -15 -50 -29 -24 -216 -123 -273 -144 -137 -50 -355 -81 -490 -69 -44 4 -98 8 -121 10 -57 4 -106 15 -129 30 -11 7 -36 16 -55 20 -65 13 -254 113 -340 178 -151 114 -258 242 -343 407 -129 249 -163 495 -111 798 26 151 192 490 241 492 6 0 25 -35 43 -77 18 -43 44 -105 59 -138 16 -33 37 -82 48 -110 11 -27 33 -76 47 -109 23 -49 24 -57 9 -52 -16 6 -16 6 0 -12 9 -10 17 -24 17 -30 0 -7 5 -12 10 -12 6 0 14 -10 19 -22 45 -117 118 -277 135 -295 43 -49 67 -20 152 182 71 170 82 191 95 178 5 -5 40 -82 78 -171 79 -185 94 -212 120 -212 30 0 47 29 129 217 44 99 94 199 111 221 40 50 101 93 166 117 100 39 284 17 351 -42 16 -14 38 -32 49 -42 68 -56 115 -168 115 -274 0 -120 -39 -207 -131 -297 -58 -56 -64 -82 -35 -144 14 -28 34 -73 44 -101 21 -54 77 -181 90 -204 5 -8 21 -24 35 -35 l27 -20 31 30 c96 91 203 318 241 507 16 83 16 346 -1 422 -88 405 -358 716 -746 861 -38 14 -86 27 -105 28 -39 4 -101 16 -113 23 -4 3 -50 7 -101 9 -114 6 -287 -16 -397 -52 -74 -24 -286 -124 -298 -142 -3 -4 -24 -20 -46 -36 -22 -16 -59 -47 -82 -69 -45 -43 -73 -45 -73 -3 0 17 17 39 58 74 225 194 515 296 825 287 77 -2 144 -8 151 -14z"/> </g> </svg>